<svg width="26" height="26" viewBox="0 0 26 26" fill="none" xmlns="http://www.w3.org/2000/svg">
<circle cx="13" cy="13" r="13" fill="#00B7CA"/>
<g clip-path="url(#clip0_5_408)">
<path d="M19.7549 13.005C19.7549 13.5499 19.3121 13.9929 18.767 13.9929H14.322C14.1409 13.9929 13.9927 14.141 13.9927 14.3221V18.7672C13.9927 19.3121 13.5499 19.755 13.0049 19.755C12.46 19.755 12.017 19.3122 12.017 18.7672V14.3221C12.017 14.141 11.8689 13.9929 11.6878 13.9929H7.24273C6.69783 13.9929 6.25488 13.5501 6.25488 13.005C6.25488 12.4601 6.69768 12.0172 7.24273 12.0172H11.6878C11.8689 12.0172 12.017 11.869 12.017 11.6879V7.24286C12.017 6.69795 12.4598 6.255 13.0049 6.255C13.5498 6.255 13.9927 6.69781 13.9927 7.24286V11.6879C13.9927 11.869 14.1409 12.0172 14.322 12.0172H18.767C19.3119 12.0172 19.7549 12.4601 19.7549 13.005Z" fill="white"/>
</g>
<defs>
<clipPath id="clip0_5_408">
<rect width="14" height="14" fill="white" transform="translate(6 6)"/>
</clipPath>
</defs>
</svg>
