<svg width="7" height="13" viewBox="0 0 7 13" fill="none" xmlns="http://www.w3.org/2000/svg">
<path d="M0.497777 12.4916L0.498372 12.4922L0.145147 12.8446M0.497777 12.4916L0.497779 12.4915L6.14117 6.86337L6.49374 6.51174L6.14212 6.15917L0.520039 0.521854L0.161348 0.867349M0.497777 12.4916C0.497441 12.4918 0.497366 12.4919 0.497726 12.4916L0.497777 12.4916ZM0.145147 12.8446C-0.0494259 12.6495 -0.0489985 12.3336 0.146101 12.139L5.43551 6.86387L5.78954 6.51079L5.43647 6.15676L0.161348 0.867349M0.145147 12.8446L0.498477 12.4923L0.850801 12.8456C0.655672 13.0401 0.339777 13.0397 0.145147 12.8446ZM0.161348 0.867349L0.513926 0.515725L0.514547 0.515106M0.161348 0.867349C-0.025155 0.673723 -0.0247402 0.367127 0.162286 0.173976M6.49587 6.51097L6.8485 6.1594L6.49587 6.51097ZM6.49587 6.51097L6.14357 6.15772L0.521501 0.520412L6.49587 6.51097ZM0.514566 0.515087L0.51538 0.514274L0.514566 0.515087ZM0.514566 0.515087L0.162286 0.173976M0.514566 0.515087L0.514547 0.515106M0.162286 0.173976L0.514547 0.515106M0.162286 0.173976L0.514547 0.515106M0.49855 12.4913C0.498739 12.4914 0.4989 12.4915 0.499029 12.4916L0.498425 12.4922L0.497845 12.4916C0.497981 12.4915 0.498156 12.4914 0.498362 12.4913C0.498842 12.4911 0.498859 12.4912 0.498463 12.4912C0.498068 12.4912 0.498079 12.4911 0.49855 12.4913ZM0.520806 0.521129L0.521022 0.520906L0.521408 0.520535C0.521479 0.520664 0.521564 0.520834 0.521644 0.521037C0.521818 0.521479 0.521743 0.521504 0.521743 0.521161C0.521744 0.520817 0.521819 0.520837 0.521647 0.521269C0.521574 0.521454 0.521492 0.521606 0.521425 0.521729L0.520806 0.521129ZM0.520192 0.521763L0.520788 0.521148L0.521401 0.521742C0.521269 0.521818 0.521103 0.521905 0.520907 0.521987C0.520431 0.52219 0.52041 0.522102 0.520799 0.522096C0.521189 0.52209 0.521171 0.522177 0.52069 0.521991C0.520493 0.521915 0.520326 0.521834 0.520192 0.521763Z" fill="black" stroke="#677294"/>
</svg>
