<svg width="18" height="18" viewBox="0 0 18 18" fill="none" xmlns="http://www.w3.org/2000/svg">
<g clip-path="url(#clip0_1_1187)">
<path d="M16.0502 1.4616H14.4971V2.57612C14.4971 3.54447 13.7115 4.33018 12.7431 4.33018H12.4325C11.4641 4.33018 10.6784 3.5446 10.6784 2.57612V1.4616H7.37139V2.57612C7.37139 3.54447 6.58581 4.33018 5.61732 4.33018H5.28852C4.32016 4.33018 3.53445 3.5446 3.53445 2.57612V1.4616H1.98137C1.15921 1.4616 0.501465 2.11935 0.501465 2.9415V15.8772C0.501465 16.6994 1.15921 17.3571 1.98137 17.3571H16.0316C16.8538 17.3571 17.5115 16.6994 17.5115 15.8772V2.9415C17.5299 2.11935 16.8721 1.4616 16.05 1.4616H16.0502ZM15.3011 14.3973C15.3011 14.7993 14.9723 15.1281 14.5703 15.1281H3.46165C3.05969 15.1281 2.73088 14.7993 2.73088 14.3973L2.73075 7.92947C2.73075 7.50927 3.05956 7.1987 3.46152 7.1987H14.5519C14.9539 7.1987 15.2827 7.52751 15.2827 7.92947V14.3973H15.3011Z" fill="#00B7CA"/>
<path d="M5.30691 3.43481H5.6175C6.09251 3.43481 6.47623 3.05106 6.47623 2.57609V0.931779C6.47623 0.420196 6.05603 0 5.54445 0H5.38004C4.86846 0 4.44826 0.420196 4.44826 0.931779V2.57609C4.42991 3.0511 4.81352 3.43481 5.30686 3.43481H5.30691Z" fill="#00B7CA"/>
<path d="M12.4143 3.43481H12.7249C13.1999 3.43481 13.5836 3.05106 13.5836 2.57609V0.931779C13.5836 0.420196 13.1634 0 12.6519 0H12.4874C11.9759 0 11.5557 0.420196 11.5557 0.931779V2.57609C11.5555 3.0511 11.9393 3.43481 12.4143 3.43481H12.4143Z" fill="#00B7CA"/>
<path d="M6.09261 8.47756H4.50308C4.2473 8.47756 4.02808 8.69677 4.02808 8.95257V10.1219C4.02808 10.3777 4.24729 10.5969 4.50308 10.5969L6.09261 10.597C6.3484 10.597 6.56762 10.3778 6.56762 10.122V8.9527C6.56775 8.69678 6.36677 8.47756 6.09261 8.47756Z" fill="#00B7CA"/>
<path d="M9.81991 8.47756H8.23038C7.97459 8.47756 7.75537 8.69677 7.75537 8.95257V10.1219C7.75537 10.3777 7.97458 10.5969 8.23038 10.5969H9.81991C10.0757 10.5969 10.2949 10.3777 10.2949 10.1219V8.95257C10.2949 8.69678 10.0757 8.47756 9.81991 8.47756Z" fill="#00B7CA"/>
<path d="M13.5289 8.47756H11.9394C11.6836 8.47756 11.4644 8.69677 11.4644 8.95257V10.1219C11.4644 10.3777 11.6836 10.5969 11.9394 10.5969H13.5289C13.7847 10.5969 14.0039 10.3777 14.0039 10.1219V8.95257C14.0039 8.69678 13.8029 8.47756 13.5289 8.47756Z" fill="#00B7CA"/>
<path d="M6.09261 11.7115H4.50308C4.2473 11.7115 4.02808 11.9307 4.02808 12.1865V13.3558C4.02808 13.6116 4.24729 13.8308 4.50308 13.8308L6.09261 13.831C6.3484 13.831 6.56762 13.6118 6.56762 13.356V12.1866C6.56775 11.9307 6.36677 11.7115 6.09261 11.7115Z" fill="#00B7CA"/>
<path d="M9.81991 11.7115H8.23038C7.97459 11.7115 7.75537 11.9307 7.75537 12.1865V13.3558C7.75537 13.6116 7.97458 13.8308 8.23038 13.8308H9.81991C10.0757 13.8308 10.2949 13.6116 10.2949 13.3558V12.1865C10.2949 11.9307 10.0757 11.7115 9.81991 11.7115Z" fill="#00B7CA"/>
<path d="M13.5289 11.7115H11.9394C11.6836 11.7115 11.4644 11.9307 11.4644 12.1865V13.3558C11.4644 13.6116 11.6836 13.8308 11.9394 13.8308H13.5289C13.7847 13.8308 14.0039 13.6116 14.0039 13.3558V12.1865C14.0039 11.9307 13.8029 11.7115 13.5289 11.7115Z" fill="#00B7CA"/>
</g>
<defs>
<clipPath id="clip0_1_1187">
<rect width="18" height="18" fill="white"/>
</clipPath>
</defs>
</svg>
