<svg width="32" height="32" viewBox="0 0 32 32" fill="none" xmlns="http://www.w3.org/2000/svg">
<circle cx="16" cy="16" r="16" fill="#F2994A"/>
<path d="M17.0909 13.0186C17.0909 11.4085 15.7653 10.0984 14.1363 10.0984C12.5072 10.0984 11.1816 11.4085 11.1816 13.0186C11.1816 14.6287 12.5072 15.9389 14.1363 15.9389C15.7653 15.9389 17.0909 14.6287 17.0909 13.0186Z" fill="white"/>
<path d="M10 20.0273V21.8184H18.2729V20.0273C18.2729 17.7732 16.417 15.9389 14.1365 15.9389C11.8559 15.9389 10 17.7732 10 20.0273Z" fill="white"/>
<path d="M22.9995 21.1954C22.9995 19.5853 21.674 18.2751 20.0449 18.2751C19.7393 18.2751 19.4503 18.3344 19.1729 18.4199C19.3401 18.9297 19.454 19.4631 19.454 20.0273V21.8184H22.9995V21.1954Z" fill="white"/>
<path d="M22.4095 15.9389C22.4095 14.6505 21.3494 13.6027 20.0458 13.6027C18.7422 13.6027 17.6821 14.6505 17.6821 15.9389C17.6821 16.0133 17.6974 16.0836 17.7043 16.1561C18.2871 16.6811 18.757 17.3219 19.0589 18.0549C19.3603 18.1928 19.6925 18.2751 20.0458 18.2751C21.3494 18.2751 22.4095 17.2273 22.4095 15.9389Z" fill="white"/>
</svg>
