<svg width="24" height="24" viewBox="0 0 24 24" fill="none" xmlns="http://www.w3.org/2000/svg">
<path d="M12.0667 18.0161C16.515 18.0161 19.8843 15.4806 22.908 11.9918C19.8552 8.50295 16.4859 5.96742 12.0667 5.96742C7.58942 5.96742 4.16189 8.41578 1.10913 11.9918C4.16195 15.568 7.56025 18.0161 12.0667 18.0161ZM12.0085 7.63068C14.4216 7.63068 16.3696 9.57863 16.3696 11.9918C16.3696 14.4049 14.4216 16.3529 12.0085 16.3529C9.59537 16.3529 7.64741 14.4049 7.64741 11.9918C7.64741 9.57879 9.59537 7.63068 12.0085 7.63068Z" fill="#677294"/>
<path d="M12.0086 15.1899C13.7821 15.1899 15.2068 13.7652 15.2068 11.9917C15.2068 10.2182 13.7821 8.79343 12.0086 8.79343C11.4561 8.79343 10.9329 8.93884 10.4967 9.17145L11.7178 11.701L8.92657 11.2068C8.83957 11.4684 8.81036 11.73 8.81036 11.9916C8.81036 13.7652 10.235 15.1899 12.0086 15.1899Z" fill="#677294"/>
</svg>
