<svg width="24" height="24" viewBox="0 0 24 24" fill="none" xmlns="http://www.w3.org/2000/svg">
<path fill-rule="evenodd" clip-rule="evenodd" d="M17.427 16.6502C19.4441 15.5717 21.2293 13.9287 22.908 11.9918C19.8552 8.50295 16.4859 5.96742 12.0667 5.96742C11.3183 5.96742 10.5993 6.03583 9.9064 6.16647L11.0347 7.73927C11.3477 7.6682 11.6736 7.63068 12.0085 7.63068C14.4216 7.63068 16.3696 9.57863 16.3696 11.9918C16.3696 12.8309 16.134 13.6138 15.7253 14.2781L17.427 16.6502ZM14.9652 13.2186C15.121 12.8412 15.2068 12.4269 15.2068 11.9917C15.2068 10.2182 13.7821 8.79343 12.0086 8.79343C11.9372 8.79343 11.8663 8.79585 11.796 8.80058L14.9652 13.2186ZM10.266 11.444L12.8699 15.0738C12.5961 15.1495 12.3073 15.1899 12.0086 15.1899C10.235 15.1899 8.81035 13.7652 8.81035 11.9916C8.81035 11.73 8.83956 11.4684 8.92656 11.2068L10.266 11.444ZM8.65566 9.19915C8.02581 9.95506 7.64741 10.9283 7.64741 11.9918C7.64741 14.4049 9.59537 16.3529 12.0085 16.3529C12.5626 16.3529 13.0922 16.2502 13.5792 16.0627L14.7478 17.6917C13.8976 17.903 13.0062 18.0161 12.0667 18.0161C7.56025 18.0161 4.16195 15.568 1.10913 11.9918C2.93369 9.85449 4.89213 8.12001 7.12854 7.07032L8.65566 9.19915Z" fill="#677294"/>
<path fill-rule="evenodd" clip-rule="evenodd" d="M16.3779 18.861L6.72995 5.46899L8.0541 4.51503L17.7021 17.907L16.3779 18.861Z" fill="#677294"/>
</svg>
