<svg width="32" height="32" viewBox="0 0 32 32" fill="none" xmlns="http://www.w3.org/2000/svg">
<circle cx="16" cy="16" r="16" fill="#219653"/>
<path d="M13.4888 21.2883C14.3132 22.4917 16.0631 22.489 16.8857 21.2883H13.4888Z" fill="white"/>
<path d="M19.1365 16.8904C19.0202 16.7755 18.9371 16.6322 18.8946 16.4768C16.5877 16.975 14.4183 15.2283 14.4183 12.9153C14.4183 11.3397 15.4349 9.99443 16.8539 9.48643C15.6897 8.74953 14.148 8.83932 13.0682 9.82805C12.4907 10.3568 12.1304 11.0722 12.0532 11.8428C11.4829 16.5289 11.5085 16.3187 11.5077 16.3261C11.4868 16.5387 11.391 16.7392 11.238 16.8904L10.5032 17.6166C10.1787 17.9373 10 18.3638 10 18.8174C10 19.7537 10.7707 20.5154 11.718 20.5154H18.6563C19.6037 20.5154 20.3744 19.7537 20.3744 18.8174C20.3744 18.3638 20.1957 17.9373 19.8712 17.6166L19.1365 16.8904Z" fill="white"/>
<path d="M21.0004 12.9153C21.0004 11.1307 19.345 9.76182 17.5606 10.0939C17.5614 10.0948 17.5622 10.0958 17.5606 10.0939C16.2184 10.3473 15.2007 11.516 15.2007 12.9153C15.2007 14.7651 16.9583 16.1465 18.7919 15.7071C18.7916 15.705 18.7918 15.7061 18.7919 15.7071C20.0586 15.4028 21.0004 14.2596 21.0004 12.9153ZM18.7066 13.9458C18.7066 14.1593 18.5315 14.3323 18.3156 14.3323C18.0997 14.3323 17.9246 14.1593 17.9246 13.9458V12.2712H17.557C17.3411 12.2712 17.1661 12.0982 17.1661 11.8848C17.1661 11.6714 17.3411 11.4983 17.557 11.4983H18.3156C18.5315 11.4983 18.7066 11.6714 18.7066 11.8848V13.9458Z" fill="white"/>
</svg>
