<svg width="140" height="170" viewBox="0 0 140 170" fill="none" xmlns="http://www.w3.org/2000/svg">
<path d="M123.125 21.25V148.75C123.127 153.344 121.639 157.816 118.886 161.494C116.132 165.171 112.261 167.858 107.852 169.15C103.814 170.345 106.816 170 38.125 170C32.4891 170 27.0841 167.761 23.099 163.776C19.1138 159.791 16.875 154.386 16.875 148.75V21.25C16.875 15.6141 19.1138 10.2091 23.099 6.22398C27.0841 2.23883 32.4891 0 38.125 0L101.875 0C107.511 0 112.916 2.23883 116.901 6.22398C120.886 10.2091 123.125 15.6141 123.125 21.25Z" fill="#50D9D7"/>
<path d="M115.156 23.9062V143.438C115.156 147.664 113.477 151.718 110.488 154.707C107.499 157.696 103.446 159.375 99.2188 159.375H40.7812C36.5544 159.375 32.5006 157.696 29.5117 154.707C26.5229 151.718 24.8438 147.664 24.8438 143.438V23.9062C24.8438 19.6794 26.5229 15.6256 29.5117 12.6367C32.5006 9.64788 36.5544 7.96875 40.7812 7.96875H49.5203C50.0726 7.97285 50.6099 8.14903 51.0575 8.47277C51.505 8.79651 51.8405 9.2517 52.0172 9.775L52.8406 12.2984C53.1925 13.3586 53.8695 14.2808 54.7756 14.9341C55.6816 15.5874 56.7705 15.9385 57.8875 15.9375H82.1125C83.2295 15.9385 84.3184 15.5874 85.2244 14.9341C86.1305 14.2808 86.8075 13.3586 87.1594 12.2984L87.9828 9.80156C88.1565 9.26902 88.494 8.80499 88.9472 8.47582C89.4004 8.14664 89.9461 7.96916 90.5063 7.96875H99.2188C103.446 7.96875 107.499 9.64788 110.488 12.6367C113.477 15.6256 115.156 19.6794 115.156 23.9062Z" fill="white"/>
<path d="M85.9375 50.4688C85.233 50.4688 84.5574 50.1889 84.0592 49.6908C83.5611 49.1926 83.2812 48.517 83.2812 47.8125V42.5C83.2812 38.9776 81.882 35.5995 79.3913 33.1087C76.9005 30.618 73.5224 29.2188 70 29.2188C66.4776 29.2188 63.0995 30.618 60.6087 33.1087C58.118 35.5995 56.7188 38.9776 56.7188 42.5V47.8125C56.7188 48.517 56.4389 49.1926 55.9408 49.6908C55.4426 50.1889 54.767 50.4688 54.0625 50.4688C53.358 50.4688 52.6824 50.1889 52.1842 49.6908C51.6861 49.1926 51.4062 48.517 51.4062 47.8125V42.5C51.4062 37.5686 53.3652 32.8392 56.8522 29.3522C60.3392 25.8652 65.0686 23.9063 70 23.9062C74.9314 23.9062 79.6608 25.8652 83.1478 29.3522C86.6348 32.8392 88.5938 37.5686 88.5938 42.5V47.8125C88.5938 48.517 88.3139 49.1926 87.8158 49.6908C87.3176 50.1889 86.642 50.4688 85.9375 50.4688Z" fill="#FFAC00"/>
<path d="M90.7719 45.1562H49.2281C46.2941 45.1562 43.9156 47.5347 43.9156 50.4688V87.6562C43.9156 90.5903 46.2941 92.9688 49.2281 92.9688H90.7719C93.7059 92.9688 96.0844 90.5903 96.0844 87.6562V50.4688C96.0844 47.5347 93.7059 45.1562 90.7719 45.1562Z" fill="#00BEBD"/>
<path d="M85.9375 58.4375C87.4045 58.4375 88.5938 57.2483 88.5938 55.7812C88.5938 54.3142 87.4045 53.125 85.9375 53.125C84.4705 53.125 83.2812 54.3142 83.2812 55.7812C83.2812 57.2483 84.4705 58.4375 85.9375 58.4375Z" fill="#F3F3F3"/>
<path d="M85.9375 69.0625C87.4045 69.0625 88.5938 67.8733 88.5938 66.4062C88.5938 64.9392 87.4045 63.75 85.9375 63.75C84.4705 63.75 83.2812 64.9392 83.2812 66.4062C83.2812 67.8733 84.4705 69.0625 85.9375 69.0625Z" fill="#F3F3F3"/>
<path d="M77.9687 66.4062C77.9728 64.9444 77.5747 63.5095 76.818 62.2588C76.0612 61.008 74.975 59.9895 73.6781 59.3148C72.3813 58.64 70.9239 58.335 69.4653 58.4331C68.0067 58.5312 66.6032 59.0286 65.4084 59.8709C64.2136 60.7133 63.2735 61.8681 62.6911 63.2089C62.1086 64.5497 61.9062 66.0249 62.106 67.4731C62.3059 68.9212 62.9002 70.2865 63.824 71.4195C64.7478 72.5525 65.9655 73.4096 67.3437 73.8969V79.6875C67.3437 80.392 67.6236 81.0676 68.1217 81.5657C68.6199 82.0639 69.2955 82.3437 70 82.3437C70.7045 82.3437 71.3801 82.0639 71.8782 81.5657C72.3764 81.0676 72.6562 80.392 72.6562 79.6875V73.8969C74.2063 73.3488 75.5489 72.3348 76.5 70.9938C77.4511 69.6527 77.9641 68.0503 77.9687 66.4062Z" fill="#50D9D7"/>
<path d="M115.156 98.2812H123.125V140.781H115.156V98.2812ZM16.875 98.2812H24.8438V140.781H16.875V98.2812Z" fill="#00BEBD"/>
<path d="M24.8438 98.2812H115.156V140.781H24.8438V98.2812Z" fill="#F3F3F3"/>
<path d="M133.75 103.594H6.25C3.31599 103.594 0.9375 105.972 0.9375 108.906V130.156C0.9375 133.09 3.31599 135.469 6.25 135.469H133.75C136.684 135.469 139.062 133.09 139.062 130.156V108.906C139.062 105.972 136.684 103.594 133.75 103.594Z" fill="#FFAC00"/>
<path d="M22.1875 130.156C21.483 130.156 20.8074 129.876 20.3092 129.378C19.8111 128.88 19.5312 128.204 19.5312 127.5V111.562C19.5312 110.858 19.8111 110.182 20.3092 109.684C20.8074 109.186 21.483 108.906 22.1875 108.906C22.892 108.906 23.5676 109.186 24.0658 109.684C24.5639 110.182 24.8438 110.858 24.8438 111.562V127.5C24.8438 128.204 24.5639 128.88 24.0658 129.378C23.5676 129.876 22.892 130.156 22.1875 130.156Z" fill="#F3F3F3"/>
<path d="M29.0937 126.172C28.0844 126.172 28.8281 126.437 13.9531 117.858C13.3402 117.506 12.8924 116.924 12.708 116.242C12.5237 115.559 12.6181 114.832 12.9703 114.219C13.3226 113.606 13.9038 113.158 14.5863 112.974C15.2688 112.789 15.9965 112.884 16.6094 113.236L30.4219 121.205C30.9336 121.495 31.3346 121.946 31.562 122.489C31.7894 123.031 31.8303 123.634 31.6784 124.202C31.5265 124.77 31.1903 125.272 30.7225 125.628C30.2548 125.985 29.6819 126.176 29.0937 126.172Z" fill="#F3F3F3"/>
<path d="M15.2813 126.172C14.6931 126.176 14.1203 125.985 13.6525 125.628C13.1847 125.272 12.8485 124.77 12.6966 124.202C12.5447 123.634 12.5856 123.031 12.813 122.489C13.0404 121.946 13.4414 121.495 13.9531 121.205L27.7656 113.236C28.0691 113.062 28.404 112.949 28.7511 112.904C29.0982 112.859 29.4508 112.882 29.7887 112.974C30.1266 113.065 30.4433 113.222 30.7205 113.435C30.9978 113.649 31.2303 113.915 31.4047 114.219C31.5791 114.522 31.692 114.857 31.737 115.204C31.782 115.551 31.7582 115.904 31.667 116.242C31.5757 116.58 31.4188 116.896 31.2052 117.174C30.9915 117.451 30.7254 117.683 30.4219 117.858C15.5203 126.437 16.2906 126.172 15.2813 126.172ZM54.0625 130.156C53.358 130.156 52.6824 129.876 52.1843 129.378C51.6861 128.88 51.4063 128.204 51.4063 127.5V111.562C51.4063 110.858 51.6861 110.182 52.1843 109.684C52.6824 109.186 53.358 108.906 54.0625 108.906C54.767 108.906 55.4426 109.186 55.9408 109.684C56.4389 110.182 56.7188 110.858 56.7188 111.562V127.5C56.7188 128.204 56.4389 128.88 55.9408 129.378C55.4426 129.876 54.767 130.156 54.0625 130.156Z" fill="#F3F3F3"/>
<path d="M60.9688 126.172C59.9594 126.172 60.7031 126.437 45.8281 117.858C45.2152 117.506 44.7674 116.924 44.583 116.242C44.3987 115.559 44.4931 114.832 44.8453 114.219C45.1976 113.606 45.7788 113.158 46.4613 112.974C47.1438 112.789 47.8715 112.884 48.4844 113.236L62.2969 121.205C62.8086 121.495 63.2096 121.946 63.437 122.489C63.6644 123.031 63.7054 123.634 63.5534 124.202C63.4015 124.77 63.0653 125.272 62.5975 125.628C62.1298 125.985 61.5569 126.176 60.9688 126.172Z" fill="#F3F3F3"/>
<path d="M47.1563 126.172C46.5681 126.176 45.9953 125.985 45.5275 125.628C45.0597 125.272 44.7235 124.77 44.5716 124.202C44.4197 123.634 44.4606 123.031 44.688 122.489C44.9154 121.946 45.3164 121.495 45.8281 121.205L59.6406 113.236C59.9441 113.062 60.279 112.949 60.6261 112.904C60.9732 112.859 61.3258 112.882 61.6637 112.974C62.0016 113.065 62.3183 113.222 62.5955 113.435C62.8728 113.649 63.1053 113.915 63.2797 114.219C63.4541 114.522 63.567 114.857 63.612 115.204C63.657 115.551 63.6332 115.904 63.542 116.242C63.4507 116.58 63.2938 116.896 63.0802 117.174C62.8665 117.451 62.6004 117.683 62.2969 117.858C47.3953 126.437 48.1656 126.172 47.1563 126.172ZM85.9375 130.156C85.233 130.156 84.5574 129.876 84.0593 129.378C83.5611 128.88 83.2813 128.204 83.2813 127.5V111.562C83.2813 110.858 83.5611 110.182 84.0593 109.684C84.5574 109.186 85.233 108.906 85.9375 108.906C86.642 108.906 87.3176 109.186 87.8158 109.684C88.3139 110.182 88.5938 110.858 88.5938 111.562V127.5C88.5938 128.204 88.3139 128.88 87.8158 129.378C87.3176 129.876 86.642 130.156 85.9375 130.156Z" fill="#F3F3F3"/>
<path d="M92.8438 126.172C91.8344 126.172 92.5781 126.437 77.7031 117.858C77.0902 117.506 76.6424 116.924 76.458 116.242C76.2737 115.559 76.3681 114.832 76.7203 114.219C77.0726 113.606 77.6538 113.158 78.3363 112.974C79.0188 112.789 79.7465 112.884 80.3594 113.236L94.1719 121.205C94.6836 121.495 95.0846 121.946 95.312 122.489C95.5394 123.031 95.5804 123.634 95.4284 124.202C95.2765 124.77 94.9403 125.272 94.4725 125.628C94.0048 125.985 93.4319 126.176 92.8438 126.172Z" fill="#F3F3F3"/>
<path d="M79.0313 126.172C78.4431 126.176 77.8703 125.985 77.4025 125.628C76.9347 125.272 76.5985 124.77 76.4466 124.202C76.2947 123.634 76.3356 123.031 76.563 122.489C76.7904 121.946 77.1914 121.495 77.7031 121.205L91.5156 113.236C91.8191 113.062 92.154 112.949 92.5011 112.904C92.8482 112.859 93.2008 112.882 93.5387 112.974C93.8766 113.065 94.1933 113.222 94.4705 113.435C94.7478 113.649 94.9803 113.915 95.1547 114.219C95.3291 114.522 95.442 114.857 95.487 115.204C95.532 115.551 95.5082 115.904 95.417 116.242C95.3257 116.58 95.1688 116.896 94.9552 117.174C94.7415 117.451 94.4754 117.683 94.1719 117.858C79.2703 126.437 80.0406 126.172 79.0313 126.172ZM117.813 130.156C117.108 130.156 116.432 129.876 115.934 129.378C115.436 128.88 115.156 128.204 115.156 127.5V111.562C115.156 110.858 115.436 110.182 115.934 109.684C116.432 109.186 117.108 108.906 117.813 108.906C118.517 108.906 119.193 109.186 119.691 109.684C120.189 110.182 120.469 110.858 120.469 111.562V127.5C120.469 128.204 120.189 128.88 119.691 129.378C119.193 129.876 118.517 130.156 117.813 130.156Z" fill="#F3F3F3"/>
<path d="M124.719 126.172C123.709 126.172 124.453 126.437 109.578 117.858C108.965 117.506 108.517 116.924 108.333 116.242C108.149 115.559 108.243 114.832 108.595 114.219C108.948 113.606 109.529 113.158 110.211 112.974C110.894 112.789 111.621 112.884 112.234 113.236L126.047 121.205C126.559 121.495 126.96 121.946 127.187 122.489C127.414 123.031 127.455 123.634 127.303 124.202C127.152 124.77 126.815 125.272 126.348 125.628C125.88 125.985 125.307 126.176 124.719 126.172Z" fill="#F3F3F3"/>
<path d="M110.906 126.172C110.318 126.176 109.745 125.985 109.277 125.628C108.81 125.272 108.474 124.77 108.322 124.202C108.17 123.634 108.211 123.031 108.438 122.489C108.665 121.946 109.066 121.495 109.578 121.205L123.391 113.236C123.694 113.062 124.029 112.949 124.376 112.904C124.723 112.859 125.076 112.882 125.414 112.974C125.752 113.065 126.068 113.222 126.346 113.435C126.623 113.649 126.855 113.915 127.03 114.219C127.204 114.522 127.317 114.857 127.362 115.204C127.407 115.551 127.383 115.904 127.292 116.242C127.201 116.58 127.044 116.896 126.83 117.174C126.617 117.451 126.35 117.683 126.047 117.858C111.145 126.437 111.916 126.172 110.906 126.172Z" fill="#F3F3F3"/>
<path d="M96.5625 154.062H43.4375C42.733 154.062 42.0574 153.783 41.5592 153.285C41.0611 152.786 40.7812 152.111 40.7812 151.406C40.7812 150.702 41.0611 150.026 41.5592 149.528C42.0574 149.03 42.733 148.75 43.4375 148.75H96.5625C97.267 148.75 97.9426 149.03 98.4408 149.528C98.9389 150.026 99.2188 150.702 99.2188 151.406C99.2188 152.111 98.9389 152.786 98.4408 153.285C97.9426 153.783 97.267 154.062 96.5625 154.062Z" fill="#D9D9D9"/>
</svg>
