<svg width="84" height="98" viewBox="0 0 84 98" fill="none" xmlns="http://www.w3.org/2000/svg">
<path d="M58.401 36.7409H39.1148C37.6687 36.7409 36.7043 35.7765 36.7043 34.3304V15.0443C36.7043 13.5981 37.6687 12.6338 39.1148 12.6338C40.561 12.6338 41.5253 13.5981 41.5253 15.0443V31.9188H58.3999C59.8461 31.9188 60.8104 32.8832 60.8104 34.3293C60.8112 35.7763 59.6056 36.7407 58.4008 36.7407L58.401 36.7409Z" fill="#677294" fill-opacity="0.16"/>
<path d="M73.1063 45.6605V31.9195C73.1063 31.1964 72.8649 30.7138 72.3832 30.232L43.2135 1.54451C42.7318 1.06274 42.0087 0.82143 41.5261 0.82143H10.4279C5.12493 0.82143 0.785645 5.16072 0.785645 10.2232V87.8482C0.785645 93.152 5.12493 97.25 10.1874 97.25H63.7053C69.0091 97.25 73.1071 92.9107 73.1071 87.8482V83.7502C79.1339 79.6522 83.2319 72.6609 83.2319 64.7056C83.2319 56.75 79.3743 49.7589 73.1071 45.6609L73.1063 45.6605ZM68.2844 87.848C68.2844 90.4998 66.1152 92.4286 63.7038 92.4286H10.427C7.77525 92.4286 5.84647 90.2594 5.84647 87.848L5.84731 10.223C5.606 7.81254 7.77607 5.64247 10.427 5.64247H40.5609L68.5252 32.8835V43.2496C66.1147 42.2852 63.2215 41.8034 60.5697 41.8034C48.0344 41.8034 37.6679 52.1695 37.6679 64.7052C37.6679 77.2409 48.034 87.607 60.5697 87.607C63.4627 87.607 66.1147 87.1252 68.5252 86.1609V87.8492L68.2844 87.848ZM73.1063 77.482C71.6601 78.9282 69.9725 80.1338 68.2853 80.857C65.8748 82.0627 63.2228 82.7857 60.3297 82.7857C50.4453 82.7857 42.2493 74.5897 42.2493 64.7054C42.2493 54.821 50.4453 46.625 60.3297 46.625C63.2228 46.625 65.8748 47.3481 68.2853 48.5538C70.214 49.5182 71.6603 50.4826 73.1063 51.9288C76.24 55.3038 78.41 59.6431 78.41 64.7054C78.41 69.7677 76.4813 74.1072 73.1063 77.482Z" fill="#677294" fill-opacity="0.16"/>
<path d="M73.5884 64.7052C73.5884 65.187 73.3471 65.6696 73.1066 66.1514C72.6248 66.8744 71.9009 67.1157 71.1778 67.1157H62.7406V75.553C62.7406 76.9992 61.5349 77.9635 60.3301 77.9635C59.1244 77.9635 57.9196 76.9991 57.9196 75.553V67.1157H49.4823C48.2766 67.1157 47.0718 66.1514 47.0718 64.7052C47.0718 63.2591 48.2775 62.2947 49.4823 62.2947H57.9196L57.9187 53.8566C57.9187 52.4104 59.1244 51.4461 60.3292 51.4461C61.5349 51.4461 62.7397 52.4105 62.7397 53.8566V62.2939H71.177C71.9001 62.2939 72.6232 62.7757 73.1058 63.2583C73.5884 63.7409 73.5884 64.2226 73.5884 64.7052Z" fill="#677294" fill-opacity="0.16"/>
</svg>
