<svg width="30" height="30" viewBox="0 0 30 30" fill="none" xmlns="http://www.w3.org/2000/svg">
<rect x="0.25" y="0.25" width="29.5" height="29.5" rx="7.75" fill="white" stroke="#00B7CA" stroke-width="0.5"/>
<g clip-path="url(#clip0_5_276)">
<path fill-rule="evenodd" clip-rule="evenodd" d="M15.0075 10.5863C12.566 10.5863 10.5862 12.566 10.5862 15.0076C10.5862 17.4492 12.5659 19.4267 15.0075 19.4267C17.449 19.4267 19.4287 17.449 19.4287 15.0076C19.4287 12.5662 17.449 10.5863 15.0075 10.5863ZM13.2699 6.32785C12.1162 6.55776 11.044 7.01148 10.1001 7.6422C10.3849 8.32387 10.2506 9.13963 9.69514 9.69511C9.14181 10.2506 8.3239 10.3848 7.64223 10.1C7.01154 11.0441 6.55779 12.1163 6.32788 13.2699C7.0135 13.5486 7.49578 14.222 7.49578 15.0074C7.49578 15.7928 7.01354 16.4643 6.32788 16.745C6.55779 17.8987 7.01151 18.9709 7.64223 19.9148C8.3239 19.628 9.14177 19.7642 9.69514 20.3177C10.2506 20.8732 10.3849 21.6911 10.1001 22.3726C11.0441 23.0033 12.1164 23.4551 13.2699 23.685C13.5486 23.0014 14.2221 22.5191 15.0075 22.5191C15.7928 22.5191 16.4663 23.0013 16.745 23.685C17.8987 23.4551 18.9709 23.0033 19.9148 22.3726C19.63 21.691 19.7643 20.8731 20.3198 20.3177C20.8731 19.7644 21.691 19.628 22.3727 19.9148C23.0034 18.9708 23.4571 17.8985 23.687 16.745C23.0014 16.4642 22.5191 15.7928 22.5191 15.0074C22.5191 14.222 23.0014 13.5486 23.687 13.2699C23.4571 12.1162 23.0034 11.0439 22.3727 10.1C21.691 10.3849 20.8731 10.2506 20.3198 9.69511C19.7643 9.13963 19.63 8.32387 19.9148 7.6422C18.9708 7.01151 17.8985 6.55776 16.745 6.32785C16.4663 7.01347 15.7928 7.49575 15.0075 7.49575C14.2221 7.49575 13.5486 7.01351 13.2699 6.32785Z" fill="#00B7CA"/>
</g>
<defs>
<clipPath id="clip0_5_276">
<rect width="18" height="18" fill="white" transform="translate(6 6)"/>
</clipPath>
</defs>
</svg>
