<svg width="210" height="210" viewBox="0 0 210 210" fill="none" xmlns="http://www.w3.org/2000/svg">
<circle cx="105" cy="105" r="105" fill="#00B7CA" fill-opacity="0.1"/>
<path d="M146.792 63.2937C135.792 52.2915 121.166 46.2327 105.608 46.2327C90.0495 46.2327 75.4233 52.2915 64.4228 63.2937C53.4207 74.2941 47.3618 88.9204 47.3618 104.478C47.3618 120.036 53.4207 134.663 64.4211 145.663C75.4233 156.665 90.0499 162.724 105.608 162.724C121.166 162.724 135.792 156.665 146.793 145.665C157.795 134.663 163.854 120.036 163.854 104.478C163.854 88.9199 157.795 74.2937 146.793 63.2932L146.792 63.2937ZM105.608 154.99C77.7571 154.99 55.0962 132.329 55.0962 104.478C55.0962 76.6279 77.7571 53.967 105.608 53.967C133.458 53.967 156.119 76.6279 156.119 104.478C156.119 132.329 133.458 154.99 105.608 154.99ZM131.657 86.2005C133.167 87.7103 133.167 90.1595 131.657 91.6694L100.571 122.755C99.8465 123.48 98.8624 123.888 97.837 123.888C96.8115 123.888 95.8283 123.48 95.1028 122.755L79.5601 107.212C78.0502 105.702 78.0502 103.253 79.5601 101.743C81.0699 100.233 83.5191 100.233 85.029 101.743L97.8376 114.552L126.191 86.1985C127.699 84.6895 130.148 84.6895 131.658 86.1994L131.657 86.2005Z" fill="#00B7CA"/>
</svg>
